<?xml version="1.0" encoding="utf-8"?>
<!-- Generator: Adobe Illustrator 17.0.0, SVG Export Plug-In . SVG Version: 6.00 Build 0)  -->
<!DOCTYPE svg PUBLIC "-//W3C//DTD SVG 1.1//EN" "http://www.w3.org/Graphics/SVG/1.1/DTD/svg11.dtd">
<svg version="1.1" xmlns="http://www.w3.org/2000/svg" xmlns:xlink="http://www.w3.org/1999/xlink" x="0px" y="0px" width="292px"
	 height="102px" viewBox="0 0 292 102" enable-background="new 0 0 292 102" xml:space="preserve">
<g id="Hydrogreen">
	<line fill="none" x1="148.891" y1="129.996" x2="148.891" y2="129.996"/>
	<line fill="none" x1="148.891" y1="129.996" x2="148.891" y2="129.996"/>
	<line fill="none" x1="148.891" y1="129.996" x2="148.891" y2="129.996"/>
	<linearGradient id="SVGID_1_" gradientUnits="userSpaceOnUse" x1="121.3884" y1="11.5479" x2="121.3884" y2="46.4452">
		<stop  offset="0" style="stop-color:#00B0DA"/>
		<stop  offset="0.0576" style="stop-color:#00A2D4"/>
		<stop  offset="0.1924" style="stop-color:#0087C8"/>
		<stop  offset="0.3398" style="stop-color:#0072BF"/>
		<stop  offset="0.504" style="stop-color:#0063B8"/>
		<stop  offset="0.6985" style="stop-color:#005BB4"/>
		<stop  offset="1" style="stop-color:#0058B3"/>
	</linearGradient>
	<path fill="url(#SVGID_1_)" d="M137.299,46.445h-8.541V32.643h-14.689v13.802h-8.592V11.548h8.592v13.594h14.689V11.548h8.541
		V46.445z"/>
	<linearGradient id="SVGID_2_" gradientUnits="userSpaceOnUse" x1="158.7519" y1="11.5479" x2="158.7519" y2="46.4452">
		<stop  offset="0" style="stop-color:#00B0DA"/>
		<stop  offset="0.0576" style="stop-color:#00A2D4"/>
		<stop  offset="0.1924" style="stop-color:#0087C8"/>
		<stop  offset="0.3398" style="stop-color:#0072BF"/>
		<stop  offset="0.504" style="stop-color:#0063B8"/>
		<stop  offset="0.6985" style="stop-color:#005BB4"/>
		<stop  offset="1" style="stop-color:#0058B3"/>
	</linearGradient>
	<path fill="url(#SVGID_2_)" d="M162.971,46.445h-8.751V35.611l-13.491-24.063h9.378l8.592,15.313l8.49-15.313h9.586l-13.803,23.959
		V46.445z"/>
	<linearGradient id="SVGID_3_" gradientUnits="userSpaceOnUse" x1="196.6124" y1="11.5479" x2="196.6124" y2="46.4452">
		<stop  offset="0" style="stop-color:#00B0DA"/>
		<stop  offset="0.0576" style="stop-color:#00A2D4"/>
		<stop  offset="0.1924" style="stop-color:#0087C8"/>
		<stop  offset="0.3398" style="stop-color:#0072BF"/>
		<stop  offset="0.504" style="stop-color:#0063B8"/>
		<stop  offset="0.6985" style="stop-color:#005BB4"/>
		<stop  offset="1" style="stop-color:#0058B3"/>
	</linearGradient>
	<path fill="url(#SVGID_3_)" d="M193.955,11.548c11.511,0,19.117,7.083,19.117,17.449c0,10.365-7.606,17.448-19.117,17.448h-13.801
		V11.548H193.955z M193.642,38.997c6.512,0,10.782-3.959,10.782-10c0-6.042-4.27-10-10.782-10h-4.897v20.001H193.642z"/>
	<linearGradient id="SVGID_4_" gradientUnits="userSpaceOnUse" x1="233.8964" y1="11.5479" x2="233.8964" y2="46.4452">
		<stop  offset="0" style="stop-color:#00B0DA"/>
		<stop  offset="0.0576" style="stop-color:#00A2D4"/>
		<stop  offset="0.1924" style="stop-color:#0087C8"/>
		<stop  offset="0.3398" style="stop-color:#0072BF"/>
		<stop  offset="0.504" style="stop-color:#0063B8"/>
		<stop  offset="0.6985" style="stop-color:#005BB4"/>
		<stop  offset="1" style="stop-color:#0058B3"/>
	</linearGradient>
	<path fill="url(#SVGID_4_)" d="M239.521,46.445l-10.523-11.979H226.5v11.979h-8.594V11.548h17.657
		c7.551,0,12.552,4.584,12.552,11.407c0,5.729-3.542,9.844-9.168,11.095l10.939,12.396H239.521z M234.624,27.278
		c3.074,0,5.052-1.668,5.052-4.219c0-2.501-1.978-4.167-5.052-4.167H226.5v8.387H234.624z"/>
	<linearGradient id="SVGID_5_" gradientUnits="userSpaceOnUse" x1="270.1393" y1="10.7671" x2="270.1393" y2="47.2261">
		<stop  offset="0" style="stop-color:#00B0DA"/>
		<stop  offset="0.0576" style="stop-color:#00A2D4"/>
		<stop  offset="0.1924" style="stop-color:#0087C8"/>
		<stop  offset="0.3398" style="stop-color:#0072BF"/>
		<stop  offset="0.504" style="stop-color:#0063B8"/>
		<stop  offset="0.6985" style="stop-color:#005BB4"/>
		<stop  offset="1" style="stop-color:#0058B3"/>
	</linearGradient>
	<path fill="url(#SVGID_5_)" d="M288.734,29.049c0,10.157-8.176,18.177-18.594,18.177c-10.415,0-18.594-8.02-18.594-18.177
		c0-10.21,8.179-18.282,18.594-18.282C280.558,10.767,288.734,18.84,288.734,29.049z M280.142,29.049
		c0-5.99-4.323-10.418-10.002-10.418c-5.677,0-9.998,4.428-9.998,10.418c0,5.937,4.322,10.313,9.998,10.313
		C275.818,39.362,280.142,34.986,280.142,29.049z"/>
	<line fill="none" x1="142.891" y1="307.996" x2="142.891" y2="307.996"/>
	<line fill="none" x1="142.891" y1="307.996" x2="142.891" y2="307.996"/>
	<line fill="none" x1="142.891" y1="307.996" x2="142.891" y2="307.996"/>
	<linearGradient id="SVGID_6_" gradientUnits="userSpaceOnUse" x1="118.4172" y1="52.6598" x2="118.4172" y2="91.5662">
		<stop  offset="0" style="stop-color:#A4BB3F"/>
		<stop  offset="0.9944" style="stop-color:#2E6A59"/>
	</linearGradient>
	<path fill="url(#SVGID_6_)" d="M137.872,68.779c0.166,1.333,0.222,2.445,0.222,3.391c0,11.283-8.06,19.397-19.289,19.397
		c-11.282,0-20.065-8.503-20.065-19.453c0-10.895,8.729-19.454,19.899-19.454c8.282,0,15.564,3.891,18.176,11.172l-8.838,2.556
		c-2.167-4.224-5.727-5.336-9.339-5.336c-6.058,0-10.672,4.78-10.672,11.062c0,6.336,4.725,11.116,10.951,11.116
		c4.89,0,8.448-2.557,9.837-6.67h-11.393v-7.781H137.872z"/>
	<linearGradient id="SVGID_7_" gradientUnits="userSpaceOnUse" x1="161.0967" y1="53.4931" x2="161.0967" y2="90.733">
		<stop  offset="0" style="stop-color:#A4BB3F"/>
		<stop  offset="0.9944" style="stop-color:#2E6A59"/>
	</linearGradient>
	<path fill="url(#SVGID_7_)" d="M167.099,90.733L155.87,77.949h-2.666v12.784h-9.171v-37.24h18.843
		c8.058,0,13.395,4.891,13.395,12.173c0,6.114-3.779,10.505-9.783,11.839l11.674,13.228H167.099z M161.873,70.279
		c3.281,0,5.391-1.78,5.391-4.503c0-2.668-2.111-4.447-5.391-4.447h-8.67v8.95H161.873z"/>
	<linearGradient id="SVGID_8_" gradientUnits="userSpaceOnUse" x1="197.0496" y1="53.4931" x2="197.0496" y2="90.733">
		<stop  offset="0" style="stop-color:#A4BB3F"/>
		<stop  offset="0.9944" style="stop-color:#2E6A59"/>
	</linearGradient>
	<path fill="url(#SVGID_8_)" d="M211.557,90.733h-29.016v-37.24h28.848v7.892h-19.675v7.003h18.063v7.449h-18.063v7.003h19.843
		V90.733z"/>
	<linearGradient id="SVGID_9_" gradientUnits="userSpaceOnUse" x1="232.5591" y1="53.4931" x2="232.5591" y2="90.733">
		<stop  offset="0" style="stop-color:#A4BB3F"/>
		<stop  offset="0.9944" style="stop-color:#2E6A59"/>
	</linearGradient>
	<path fill="url(#SVGID_9_)" d="M247.067,90.733h-29.016v-37.24h28.848v7.892h-19.675v7.003h18.063v7.449h-18.063v7.003h19.843
		V90.733z"/>
	<linearGradient id="SVGID_10_" gradientUnits="userSpaceOnUse" x1="271.3492" y1="53.4931" x2="271.3492" y2="90.733">
		<stop  offset="0" style="stop-color:#A4BB3F"/>
		<stop  offset="0.9944" style="stop-color:#2E6A59"/>
	</linearGradient>
	<path fill="url(#SVGID_10_)" d="M289.135,90.733h-7.559l-18.843-21.566v21.566h-9.171v-37.24h7.615l18.841,22.233V53.493h9.116
		V90.733z"/>
	
		<linearGradient id="SVGID_11_" gradientUnits="userSpaceOnUse" x1="-159.801" y1="-20.5286" x2="-159.801" y2="34.4704" gradientTransform="matrix(0.9883 -0.1523 0.1523 0.9883 16.1176 60.6182)">
		<stop  offset="0" style="stop-color:#D7C334;stop-opacity:0"/>
		<stop  offset="0.7687" style="stop-color:#D7C334;stop-opacity:0.9643"/>
		<stop  offset="0.7971" style="stop-color:#D7C334"/>
		<stop  offset="1" style="stop-color:#D7C334"/>
	</linearGradient>
	<path opacity="0.3" fill="url(#SVGID_11_)" d="M-146.454,64.899c0,0,0.813,0.431,1.979,1.534c0.589,0.548,1.242,1.277,1.925,2.172
		c0.693,0.892,1.366,1.981,1.983,3.24c0.574,1.27,1.127,2.695,1.478,4.266c0.363,1.565,0.619,3.255,0.65,5.005
		c0.059,1.752-0.054,3.559-0.306,5.375c-0.163,0.9-0.327,1.806-0.491,2.717l-0.527,2.627c-0.685,3.456-1.098,6.988-1.203,10.289
		c-0.029,1.651-0.003,3.245,0.126,4.751c0.159,1.498,0.337,2.922,0.648,4.201c0.283,1.289,0.665,2.437,1.045,3.445
		c0.396,1.002,0.839,1.833,1.244,2.499c0.832,1.316,1.465,1.984,1.465,1.984s-0.176-0.145-0.504-0.413
		c-0.343-0.261-0.795-0.697-1.33-1.3c-1.038-1.22-2.331-3.196-3.215-5.841c-0.478-1.312-0.82-2.782-1.091-4.352
		c-0.26-1.571-0.426-3.243-0.456-4.976c-0.092-3.466,0.304-7.136,0.977-10.765l0.577-2.662c0.166-0.856,0.335-1.707,0.499-2.553
		c0.249-1.698,0.477-3.378,0.483-5.008c0.025-1.63-0.069-3.206-0.301-4.684c-0.231-1.475-0.597-2.845-1.007-4.093
		c-0.47-1.219-0.941-2.338-1.47-3.279c-0.524-0.94-1.047-1.731-1.537-2.339C-145.764,65.498-146.454,64.899-146.454,64.899z"/>
</g>
<g id="Isotipo">
	<linearGradient id="SVGID_12_" gradientUnits="userSpaceOnUse" x1="32.7854" y1="2.4999" x2="32.7854" y2="100.8451">
		<stop  offset="0" style="stop-color:#00AFF2"/>
		<stop  offset="0.2068" style="stop-color:#0098D9"/>
		<stop  offset="0.6432" style="stop-color:#005C99"/>
		<stop  offset="1" style="stop-color:#002761"/>
	</linearGradient>
	<path fill="url(#SVGID_12_)" d="M40.175,72.268C37.701,61.784,41.42,49.434,50.38,38.384c6.99-8.619,6.888-18.481,5.182-22.673
		l-0.85-2.087C48.612,7.524,43.587,2.5,43.587,2.5S22.142,23.945,14.782,31.306C-1.126,47.213-1.273,73.007,14.638,88.917
		c13.061,13.061,33.451,15.395,48.156,7.007C50.129,90.153,42.517,82.196,40.175,72.268z"/>
	<linearGradient id="SVGID_13_" gradientUnits="userSpaceOnUse" x1="51.4265" y1="73.5401" x2="76.3114" y2="59.1728">
		<stop  offset="0" style="stop-color:#FFFFFF"/>
		<stop  offset="1" style="stop-color:#FFFFFF"/>
	</linearGradient>
	<path fill="url(#SVGID_13_)" d="M62.822,37.356c0,0,0.781,0.582,1.822,1.924c0.528,0.668,1.093,1.535,1.663,2.581
		c0.581,1.045,1.11,2.292,1.552,3.708c0.395,1.42,0.745,3,0.858,4.7c0.128,1.695,0.123,3.503-0.127,5.339
		c-0.22,1.842-0.63,3.714-1.186,5.572c-0.315,0.915-0.633,1.836-0.951,2.762l-0.974,2.662c-1.273,3.504-2.274,7.131-2.916,10.566
		c-0.296,1.721-0.526,3.393-0.634,4.989c-0.075,1.592-0.118,3.11,0.001,4.498c0.088,1.394,0.303,2.656,0.537,3.771
		c0.253,1.112,0.582,2.053,0.898,2.814c0.658,1.51,1.212,2.311,1.212,2.311s-0.16-0.18-0.46-0.514
		c-0.316-0.328-0.719-0.857-1.181-1.574c-0.889-1.444-1.922-3.718-2.421-6.627c-0.288-1.449-0.409-3.041-0.439-4.727
		c-0.018-1.685,0.077-3.46,0.325-5.277c0.462-3.639,1.467-7.414,2.757-11.1l1.033-2.691c0.312-0.869,0.625-1.732,0.934-2.589
		c0.534-1.736,1.044-3.456,1.312-5.16c0.289-1.7,0.444-3.364,0.44-4.947c-0.004-1.58-0.166-3.071-0.393-4.443
		c-0.295-1.351-0.607-2.596-1.009-3.666c-0.396-1.067-0.816-1.979-1.231-2.694C63.448,38.094,62.822,37.356,62.822,37.356z"/>
	
		<linearGradient id="SVGID_14_" gradientUnits="userSpaceOnUse" x1="502.9472" y1="357.5245" x2="548.8976" y2="403.4749" gradientTransform="matrix(0.7071 0.7071 -0.7071 0.7071 -40.0351 -575.3485)">
		<stop  offset="0" style="stop-color:#ADCE32"/>
		<stop  offset="1" style="stop-color:#558820"/>
	</linearGradient>
	<path fill="url(#SVGID_14_)" d="M72.526,88.679c15.544-15.544,15.543-40.749-0.001-56.293c-3.762-3.762-9.844-9.843-15.395-15.394
		c1.487,3.651,2.279,13.558-5.146,22.713C39.126,55.565,32.804,80.961,64.01,95.121C67.052,93.392,69.933,91.272,72.526,88.679z"/>
	<path fill="#FFFFFF" d="M62.52,33.669c0,0,0.763,0.568,1.781,1.88c0.516,0.652,1.068,1.5,1.625,2.522
		c0.568,1.021,1.084,2.24,1.516,3.623c0.386,1.388,0.728,2.932,0.839,4.592c0.125,1.656,0.12,3.423-0.124,5.217
		c-0.215,1.799-0.616,3.629-1.159,5.445c-0.308,0.894-0.618,1.794-0.929,2.699l-0.952,2.601c-1.244,3.424-2.222,6.968-2.849,10.324
		c-0.29,1.682-0.514,3.316-0.619,4.875c-0.074,1.556-0.116,3.039,0.001,4.395c0.086,1.362,0.296,2.595,0.525,3.685
		c0.247,1.086,0.569,2.006,0.877,2.749c0.643,1.476,1.185,2.258,1.185,2.258s-0.157-0.175-0.45-0.502
		c-0.309-0.321-0.702-0.837-1.154-1.538c-0.868-1.411-1.878-3.633-2.366-6.475c-0.281-1.416-0.4-2.972-0.429-4.619
		c-0.018-1.646,0.075-3.381,0.317-5.156c0.451-3.556,1.434-7.244,2.694-10.846l1.009-2.629c0.305-0.849,0.611-1.692,0.912-2.53
		c0.522-1.696,1.02-3.377,1.282-5.042c0.282-1.661,0.434-3.287,0.43-4.834c-0.004-1.544-0.162-3.001-0.384-4.341
		c-0.289-1.32-0.593-2.537-0.986-3.582c-0.387-1.043-0.797-1.934-1.203-2.632C63.131,34.39,62.52,33.669,62.52,33.669z"/>
</g>
</svg>
